<svg width="87" height="33" viewBox="0 0 87 33" fill="none" xmlns="http://www.w3.org/2000/svg">
<path d="M86.621 28.6381C86.198 29.4793 85.7991 30.1924 84.7785 30.3696C82.4175 30.7813 81.4304 28.7294 80.3158 27.0784C77.7668 23.3045 75.3589 18.6921 72.6528 15.15C72.5359 14.9973 72.5185 14.8705 72.2741 14.9237V28.8412C72.2741 29.0376 71.7839 29.7547 71.5959 29.9197C70.4288 30.9395 68.6078 30.3342 68.2841 28.8085C68.2666 22.9309 67.7389 16.4957 68.1109 10.6413C68.178 9.59145 68.319 8.49801 69.2269 7.83267C70.3724 6.99418 71.8322 7.1946 72.7441 8.26896L82.2913 22.8996L82.5988 23.0713V8.88248C82.5988 8.77887 83.1239 7.94174 83.277 7.80404C84.4024 6.7924 86.2906 7.45092 86.4881 8.95065C86.621 9.28469 86.5928 9.82595 86.4881 10.1723C86.5525 16.2216 86.5968 22.196 86.6224 28.0955V28.6381H86.621Z" fill="white"/>
<path d="M86.6227 28.0949C86.4011 27.9531 86.4884 27.5795 86.4857 27.3505C86.4266 21.6501 86.6616 15.853 86.4884 10.1717C86.526 10.0531 86.5716 10.0545 86.6227 10.1717V28.0949Z" fill="white"/>
<path d="M86.622 10.1716H86.4877C86.4756 9.78299 86.536 9.31534 86.4877 8.94995H86.622V10.1716Z" fill="white"/>
<path d="M55.5105 9.69576C55.8771 6.94715 59.4695 6.87625 59.9235 9.57169L59.9356 28.5692C59.6468 30.8079 57.306 31.386 55.8556 29.7131C53.3805 25.4403 50.8249 21.2015 48.5351 16.825L48.2598 16.9095L40.8909 29.7881C39.3519 31.5892 37.1118 30.5475 36.8714 28.2993C37.1749 22.4421 36.4712 16.1773 36.866 10.3693C36.8915 9.9957 36.9359 9.54578 37.0446 9.19266C37.7578 6.86126 41.0789 7.1203 41.3032 9.69167C41.5275 12.263 41.2495 15.2489 41.2938 17.853C41.3045 18.5142 41.467 19.1645 41.2992 19.8135C41.5369 19.8667 41.5651 19.744 41.6792 19.5886C43.4479 17.2081 44.6929 13.5433 46.4696 11.1314C47.5426 9.67531 49.1421 9.64258 50.2595 11.0782C52.0456 13.3756 53.5967 17.1835 55.2177 19.7713C55.2929 19.8912 55.3426 20.0739 55.5118 20.0848V9.69712L55.5105 9.69576Z" fill="white"/>
<path d="M63.7951 7.35626C65.1529 7.1872 66.1265 8.06386 66.2447 9.42044C66.7725 15.4726 65.8391 22.3018 66.2393 28.4357C65.8888 30.8939 62.7933 31.1162 61.9808 28.8093C61.7055 22.2118 61.7055 15.5121 61.9808 8.91462C62.2749 8.07886 62.9047 7.46533 63.7951 7.35489V7.35626Z" fill="white"/>
<path d="M21.0515 29.93C21.0515 29.9722 21.1885 30.0731 21.1603 30.1795C21.1415 30.3472 19.2882 32.4822 19.0169 32.7563C18.8987 32.8763 18.9027 33.0535 18.6395 32.984L18.6677 20.0481L21.0515 17.3704C21.0381 21.5546 21.0703 25.7443 21.0515 29.93Z" fill="white"/>
<path d="M61.9485 0.191904C61.9807 0.0719253 62.2117 -0.0780482 62.3568 0.0473842C62.9074 0.408684 66.9766 2.49877 67.0437 2.77554C67.0921 2.97187 66.8181 3.13275 66.6865 3.22546C65.8619 3.80899 64.3578 4.59567 63.4258 5.08377C63.2082 5.19829 61.9485 5.96316 61.9485 5.4887V0.191904Z" fill="#FF153C"/>
<path d="M33.6562 16.1473C33.3902 16.0955 33.1176 16.0601 32.8517 16.011C30.155 15.5161 27.4221 15.2325 24.673 15.1957C24.7388 13.8282 22.9379 10.3474 21.4942 10.3338C21.3264 10.3324 20.8227 10.7755 20.6468 10.9173C20.4924 11.0414 19.5523 11.9099 19.5765 12.004C20.6522 12.7893 21.7816 13.7927 21.9898 15.1957L16.0485 15.4424C15.3864 14.7676 14.7995 13.9782 14.081 13.3619C13.9575 13.2556 13.2323 12.6502 13.141 12.7525C12.8643 13.0633 15.2279 14.9543 14.6209 15.6769L8.17868 16.4173L11.3964 12.2098C7.93963 12.368 5.65927 10.826 9.73653 8.695C11.7577 7.63973 14.5 6.96485 16.7603 7.3207V4.3335C13.7708 4.95384 10.502 6.10318 8.30895 8.33506C6.88406 9.78435 5.97756 11.4341 8.176 12.6843C7.15937 13.8595 6.57115 15.3443 5.90772 16.7336C5.60555 17.1085 2.34885 17.2299 1.79958 17.6307C1.32551 17.977 0.584192 20.5988 0 21.1701L4.82663 19.8149C4.29884 21.5341 4.36465 24.2868 5.76268 25.5861C7.46019 27.1649 9.58074 26.3592 11.3508 25.402C14.2489 23.8355 16.8475 20.7461 16.6407 17.2476L22.1697 16.5441L23.5302 26.4655C24.6341 25.7565 26.0536 25.5425 27.0877 24.7722L31.1085 16.5536H28.6267L25.8763 22.393C25.593 22.678 25.5057 21.7141 25.4922 21.6295C25.2236 19.9076 25.1122 18.1379 24.8624 16.4145C25.0423 16.1664 26.4807 16.3055 26.8822 16.2809C28.4387 16.1855 29.9402 16.1555 31.5101 16.1473C32.3602 16.1855 32.9645 16.2346 33.6562 16.2823C33.7716 16.2305 33.773 16.1855 33.6562 16.1473ZM10.7142 24.3495C8.25389 26.1396 5.20669 26.2855 5.6445 22.3399C5.69822 21.8572 6.33747 19.5176 6.6289 19.2627C6.89078 19.0336 9.35378 18.4815 9.89365 18.3587C10.5437 18.2101 14.9137 17.3376 15.1514 17.5066C14.9096 20.2048 12.8307 22.8102 10.7142 24.3495Z" fill="white"/>
</svg>
